<svg width="55" height="23" viewBox="0 0 55 23" fill="none" xmlns="http://www.w3.org/2000/svg">
<g clip-path="url(#clip0_146_768)">
<path opacity="0.8" d="M23.9656 1.767C23.9656 1.41752 23.862 1.07589 23.6678 0.785308C23.4737 0.494727 23.1977 0.268246 22.8748 0.134506C22.552 0.000765607 22.1967 -0.0342269 21.8539 0.0339532C21.5111 0.102133 21.1963 0.270424 20.9492 0.517543C20.7021 0.764662 20.5338 1.07951 20.4656 1.42228C20.3974 1.76504 20.4324 2.12033 20.5661 2.4432C20.6999 2.76608 20.9264 3.04205 21.217 3.23621C21.5075 3.43037 21.8492 3.534 22.1986 3.534C22.4308 3.53426 22.6607 3.48874 22.8752 3.40003C23.0897 3.31132 23.2846 3.18118 23.4487 3.01705C23.6128 2.85291 23.743 2.65801 23.8317 2.44351C23.9204 2.22901 23.9659 1.99912 23.9656 1.767" fill="white"/>
<path opacity="0.6" d="M18.3348 1.767C18.3348 1.41752 18.2311 1.07589 18.037 0.785308C17.8428 0.494727 17.5669 0.268246 17.244 0.134506C16.9211 0.000765607 16.5658 -0.0342269 16.2231 0.0339532C15.8803 0.102133 15.5654 0.270424 15.3183 0.517543C15.0712 0.764662 14.9029 1.07951 14.8347 1.42228C14.7666 1.76504 14.8015 2.12033 14.9353 2.4432C15.069 2.76608 15.2955 3.04205 15.5861 3.23621C15.8767 3.43037 16.2183 3.534 16.5678 3.534C16.7999 3.53426 17.0298 3.48874 17.2443 3.40003C17.4588 3.31132 17.6537 3.18118 17.8178 3.01705C17.982 2.85291 18.1121 2.65801 18.2008 2.44351C18.2895 2.22901 18.335 1.99912 18.3348 1.767" fill="white"/>
<path opacity="0.4" d="M12.702 1.767C12.702 1.41752 12.5983 1.07589 12.4042 0.785308C12.21 0.494727 11.934 0.268246 11.6112 0.134506C11.2883 0.000765607 10.933 -0.0342269 10.5902 0.0339532C10.2475 0.102133 9.93263 0.270424 9.68551 0.517543C9.43839 0.764662 9.2701 1.07951 9.20192 1.42228C9.13374 1.76504 9.16873 2.12033 9.30247 2.4432C9.43621 2.76608 9.66269 3.04205 9.95327 3.23621C10.2439 3.43037 10.5855 3.534 10.935 3.534C11.1671 3.53426 11.397 3.48874 11.6115 3.40003C11.826 3.31132 12.0209 3.18118 12.185 3.01705C12.3491 2.85291 12.4793 2.65801 12.568 2.44351C12.6567 2.22901 12.7022 1.99912 12.702 1.767" fill="white"/>
<path opacity="0.2" d="M7.06916 1.767C7.06916 1.41752 6.96552 1.07589 6.77136 0.785308C6.5772 0.494727 6.30124 0.268246 5.97836 0.134506C5.65548 0.000765607 5.3002 -0.0342269 4.95743 0.0339532C4.61467 0.102133 4.29982 0.270424 4.0527 0.517543C3.80558 0.764662 3.63729 1.07951 3.56911 1.42228C3.50093 1.76504 3.53592 2.12033 3.66966 2.4432C3.8034 2.76608 4.02988 3.04205 4.32047 3.23621C4.61105 3.43037 4.95268 3.534 5.30216 3.534C5.53428 3.53426 5.76417 3.48874 5.97867 3.40003C6.19317 3.31132 6.38807 3.18118 6.5522 3.01705C6.71633 2.85291 6.84648 2.65801 6.93519 2.44351C7.0239 2.22901 7.06942 1.99912 7.06916 1.767" fill="white"/>
<path d="M27.8184 7.03297C27.9947 7.03301 28.1696 7.0679 28.332 7.13648C28.4944 7.20511 28.6417 7.30605 28.7646 7.43238C28.8875 7.55874 28.9838 7.70866 29.0479 7.87281C29.1119 8.03697 29.1425 8.2123 29.1377 8.38844V21.6433C29.1425 21.8196 29.112 21.9956 29.0479 22.1599C28.9838 22.3241 28.8875 22.474 28.7646 22.6004C28.6417 22.7267 28.4944 22.8276 28.332 22.8962C28.1696 22.9648 27.9947 22.9997 27.8184 22.9998C27.642 22.9998 27.4671 22.9648 27.3047 22.8962C27.1422 22.8276 26.9951 22.7268 26.8721 22.6004C26.7491 22.4739 26.652 22.3242 26.5879 22.1599C26.5238 21.9957 26.4942 21.8196 26.499 21.6433V8.38844C26.4942 8.21234 26.5239 8.03694 26.5879 7.87281C26.652 7.70852 26.7491 7.5588 26.8721 7.43238C26.9951 7.30594 27.1422 7.20511 27.3047 7.13648C27.4672 7.06789 27.642 7.03297 27.8184 7.03297ZM19.877 7.18629L19.9854 7.17457C20.1449 7.17458 20.3031 7.2065 20.4502 7.26832C20.5974 7.33018 20.731 7.42086 20.8428 7.53492C20.9544 7.64888 21.0418 7.78412 21.1006 7.93238C21.1594 8.08075 21.1878 8.23963 21.1846 8.39918C21.1848 8.55859 21.1536 8.71669 21.0928 8.86402C21.0319 9.01141 20.9428 9.14578 20.8301 9.25855C20.7173 9.37134 20.583 9.46033 20.4355 9.52125C20.2882 9.58213 20.1302 9.61429 19.9707 9.61402C19.9359 9.61396 19.9001 9.60138 19.8652 9.60133V9.61402H7.93945C4.63056 9.61402 2.6388 11.7344 2.63867 15.0212V21.6433C2.62921 21.9869 2.4866 22.3138 2.24023 22.5535C1.99381 22.7932 1.66313 22.9275 1.31934 22.9275C0.975709 22.9275 0.645772 22.793 0.399414 22.5535C0.152992 22.3137 0.00946175 21.987 0 21.6433V15.0212C0.000145796 10.2854 3.21723 7.17457 7.95312 7.17457H19.877V7.18629ZM53.1143 7.17457C53.2738 7.17431 53.4327 7.20545 53.5801 7.26637C53.7273 7.32728 53.8609 7.41735 53.9736 7.53004C54.0863 7.64278 54.1764 7.77626 54.2373 7.92359C54.2982 8.07093 54.3293 8.22902 54.3291 8.38844C54.331 8.54833 54.3005 8.70617 54.2402 8.85426C54.18 9.00224 54.0905 9.13673 53.9775 9.24976C53.8644 9.36287 53.7292 9.45309 53.5811 9.51344C53.4331 9.57364 53.274 9.6032 53.1143 9.60133H39.0938C38.5553 9.62763 38.0476 9.86041 37.6758 10.2507C37.3039 10.6412 37.0957 11.1598 37.0957 11.699C37.0957 12.2382 37.3039 12.7568 37.6758 13.1472C38.0476 13.5376 38.5552 13.7703 39.0938 13.7966H50.584C51.1113 13.8094 51.6328 13.9144 52.125 14.1072C52.6875 14.3275 53.2002 14.6582 53.6328 15.0798C54.0655 15.5015 54.4097 16.0056 54.6445 16.5623C54.8793 17.1189 55 17.7169 55 18.3211C55 18.9252 54.8793 19.5232 54.6445 20.0798C54.4097 20.6365 54.0655 21.1406 53.6328 21.5623C53.2002 21.9839 52.6875 22.3146 52.125 22.5349C51.6328 22.7277 51.1113 22.8327 50.584 22.8455H36.3369C36.1746 22.8501 36.0126 22.8223 35.8613 22.7634C35.7101 22.7046 35.5724 22.6158 35.4561 22.5027C35.3396 22.3896 35.2468 22.2538 35.1836 22.1043C35.1206 21.955 35.088 21.7946 35.0879 21.6326C35.0879 21.4704 35.1205 21.3094 35.1836 21.1599C35.2468 21.0104 35.3396 20.8746 35.4561 20.7615C35.5724 20.6484 35.7101 20.5596 35.8613 20.5007C36.0126 20.4419 36.1746 20.4141 36.3369 20.4187H50.3574C50.896 20.3924 51.4045 20.1598 51.7764 19.7693C52.1481 19.3788 52.3555 18.8602 52.3555 18.3211C52.3555 17.7819 52.1481 17.2633 51.7764 16.8728C51.4045 16.4823 50.896 16.2497 50.3574 16.2234H38.8672C38.3399 16.2106 37.8183 16.1057 37.3262 15.9129C36.7637 15.6925 36.251 15.3618 35.8184 14.9402C35.3857 14.5185 35.0414 14.0144 34.8066 13.4578C34.5719 12.9012 34.4512 12.303 34.4512 11.699C34.4512 11.0949 34.5719 10.4968 34.8066 9.94019C35.0414 9.38351 35.3857 8.87945 35.8184 8.45777C36.251 8.03615 36.7637 7.70549 37.3262 7.48512C37.8183 7.29231 38.3399 7.18739 38.8672 7.17457H53.1143ZM17.332 13.8084C17.4943 13.8037 17.6563 13.8315 17.8076 13.8904C17.9588 13.9493 18.0965 14.0381 18.2129 14.1511C18.3293 14.2643 18.4221 14.4 18.4854 14.5496C18.5485 14.6991 18.5811 14.8599 18.5811 15.0222C18.581 15.1845 18.5485 15.3454 18.4854 15.4949C18.4222 15.6443 18.3292 15.7793 18.2129 15.8923C18.0966 16.0054 17.9587 16.0942 17.8076 16.1531C17.6563 16.212 17.4943 16.2398 17.332 16.2351H5.18457C5.02522 16.2353 4.867 16.2042 4.71973 16.1433C4.57255 16.0824 4.43881 15.9932 4.32617 15.8806C4.21339 15.7678 4.12342 15.6335 4.0625 15.4861C4.01687 15.3755 3.98805 15.259 3.97656 15.1404L3.9707 15.0222C3.97211 14.7008 4.10085 14.3931 4.32812 14.1658C4.55541 13.9385 4.86316 13.8098 5.18457 13.8084H17.332ZM27.4863 0.0339446C27.8291 -0.0342355 28.1849 0.000790436 28.5078 0.13453C28.8306 0.268275 29.1067 0.494433 29.3008 0.784921C29.4949 1.07539 29.5986 1.41703 29.5986 1.76637C29.5989 1.99839 29.5535 2.2287 29.4648 2.44312C29.3761 2.65763 29.2452 2.85223 29.0811 3.01637C28.9169 3.1805 28.7223 3.31145 28.5078 3.40016C28.2934 3.48879 28.0631 3.53421 27.8311 3.53394C27.4817 3.53387 27.1401 3.43018 26.8496 3.23609C26.5591 3.04198 26.333 2.76589 26.1992 2.44312C26.0655 2.12025 26.0305 1.7644 26.0986 1.42164C26.1669 1.07904 26.335 0.764359 26.582 0.517343C26.829 0.270329 27.1437 0.102179 27.4863 0.0339446Z" fill="white"/>
</g>
<defs>
<clipPath id="clip0_146_768">
<rect width="55" height="23" fill="white"/>
</clipPath>
</defs>
</svg>
